<svg xmlns="http://www.w3.org/2000/svg" width="138" height="36" viewBox="0 0 138 36" fill="none"><path d="M21.3811 0.306152C24.791 0.306152 26.7263 2.75922 26.7263 5.49534C26.7263 9.78821 23.4547 12.5715 17.5564 12.5715C16.727 12.5715 15.8054 12.5243 14.8377 12.4772C14.7917 11.4865 14.7456 10.543 14.7456 9.69386C14.7456 3.65554 17.4643 0.306152 21.3811 0.306152Z" fill="#87D447"></path><path d="M21.381 27.6672C17.4642 27.6672 14.7455 24.3178 14.7455 18.2795C14.7455 17.4304 14.7916 16.4869 14.8377 15.4962C15.8054 15.449 16.7269 15.4019 17.5564 15.4019C23.4546 15.4019 26.7263 18.1851 26.7263 22.478C26.7263 25.2141 24.7909 27.6672 21.381 27.6672Z" fill="#50AFCD"></path><path d="M5.34526 27.6672C1.93535 27.6672 0 25.2141 0 22.478C0 18.1851 3.27167 15.4019 9.16989 15.4019C9.99933 15.4019 10.9209 15.449 11.8886 15.4962C11.9347 16.4869 11.9808 17.4304 11.9808 18.2795C11.9808 24.3178 9.26205 27.6672 5.34526 27.6672Z" fill="#EFAA02"></path><path d="M5.34526 0.306152C9.26205 0.306152 11.9808 3.65554 11.9808 9.69386C11.9808 10.543 11.9347 11.4865 11.8886 12.4772C10.9209 12.5243 9.99933 12.5715 9.16989 12.5715C3.27167 12.5715 0 9.78821 0 5.49534C0 2.75922 1.93535 0.306152 5.34526 0.306152Z" fill="#D95423"></path><path fill-rule="evenodd" clip-rule="evenodd" d="M43.0889 25.1502V25.6102C43.0889 26.5687 42.6039 27.6805 40.3654 27.6805C39.1343 27.6805 38.2762 27.2204 37.9031 26.1853C37.4554 27.1054 36.3362 27.6422 35.0304 27.6422C31.8593 27.6422 30.1804 25.0351 30.1804 18.2492C30.1804 11.4633 31.8593 8.85623 35.0304 8.85623C36.5227 8.85623 37.3808 9.46965 37.6793 10.1981V0.728435C37.6793 0.306709 37.9778 0 38.3881 0H41.5593C41.9697 0 42.2681 0.306709 42.2681 0.728435V23.9233C42.2681 24.8051 42.5293 25.1502 43.0889 25.1502ZM36.5973 24.1535C37.045 24.1535 37.3808 24.0385 37.6792 23.8852V12.6136C37.3808 12.4602 37.045 12.3452 36.5973 12.3452C35.5527 12.3452 34.7692 12.8053 34.7692 18.2494C34.7692 23.6551 35.5527 24.1535 36.5973 24.1535ZM56.4078 25.6105V25.1504C55.8482 25.1504 55.5871 24.8053 55.5871 23.9235V14.2622C55.5871 10.505 53.6844 8.81812 50.1028 8.81812C47.0436 8.81812 44.6559 10.4283 44.6559 14.0705C44.6559 14.7606 45.1409 14.9906 45.5886 14.9906H47.9016C48.424 14.9906 48.6105 14.6839 48.5732 13.9555C48.5359 13.1504 48.7224 12.1919 49.9163 12.1919C50.9982 12.1919 51.2593 12.997 51.2593 13.9172V16.7926C50.6624 16.6775 49.9909 16.5625 49.0209 16.5625C45.3647 16.5625 44.0216 19.2462 44.0216 22.0833C44.0216 25.0354 45.1409 27.6807 48.1628 27.6807C49.767 27.6807 50.9609 27.1823 51.4459 26.1472C51.7444 27.2207 52.4159 27.6807 53.647 27.6807C55.9228 27.6807 56.4078 26.5689 56.4078 25.6105ZM49.767 24.6514C50.3639 24.6897 50.8489 24.4597 51.2593 24.153V19.2839C50.8489 19.2456 50.5131 19.2456 50.1774 19.2456C48.797 19.2839 48.3493 20.3574 48.3493 22.121C48.3493 23.8079 48.797 24.5747 49.767 24.6514ZM62.6009 26.7222V9.77653C62.6009 9.3548 62.3025 9.0481 61.8921 9.0481H58.7209C58.3105 9.0481 58.0121 9.3548 58.0121 9.77653V26.7222C58.0121 27.1439 58.3105 27.4507 58.7209 27.4507H61.8921C62.3025 27.4507 62.6009 27.1439 62.6009 26.7222ZM60.2878 1.3418C61.6309 1.3418 62.6755 2.41528 62.6755 3.79547C62.6755 5.13732 61.6309 6.24914 60.2878 6.24914C58.9821 6.24914 57.9001 5.13732 57.9001 3.79547C57.9001 2.41528 58.9821 1.3418 60.2878 1.3418ZM69.5775 26.722V0.728435C69.5775 0.306709 69.279 0 68.8686 0H65.6975C65.2871 0 64.9886 0.306709 64.9886 0.728435V26.722C64.9886 27.1438 65.2871 27.4505 65.6975 27.4505H68.8686C69.279 27.4505 69.5775 27.1438 69.5775 26.722ZM84.0156 9.77653V27.5657C84.0156 33.1631 81.9263 36.0002 77.039 36.0002C75.7333 36.0002 73.3456 35.5401 73.3456 34.6967V32.013C73.3456 31.6296 73.5321 31.4379 73.8679 31.4379C74.0917 31.4379 74.4275 31.5529 74.7633 31.7062C75.2483 31.8979 75.9198 32.0513 76.5167 32.0513C78.7552 32.0513 79.4267 30.7094 79.4267 27.7574V26.3005C78.7179 26.9906 77.4867 27.6807 75.9571 27.6807C73.1963 27.6807 71.9279 25.9938 71.9279 22.8884V9.77653C71.9279 9.3548 72.2263 9.0481 72.6367 9.0481H75.8079C76.2183 9.0481 76.5167 9.3548 76.5167 9.77653V22.7733C76.5167 23.7318 76.9271 24.1152 77.7106 24.1152C78.1956 24.1152 78.8671 23.9618 79.4267 23.6551V9.77653C79.4267 9.3548 79.7252 9.0481 80.1356 9.0481H83.3067C83.7171 9.0481 84.0156 9.3548 84.0156 9.77653ZM98.491 26.722V13.6102C98.491 10.5048 97.2225 8.81789 94.4991 8.81789C92.8948 8.81789 91.6264 9.66134 90.9921 10.3898V0.728435C90.9921 0.306709 90.6937 0 90.2833 0H87.1121C86.7017 0 86.4033 0.306709 86.4033 0.728435V26.722C86.4033 27.1438 86.7017 27.4505 87.1121 27.4505H90.2833C90.6937 27.4505 90.9921 27.1438 90.9921 26.722V12.8435C91.5891 12.5367 92.2606 12.3834 92.7456 12.3834C93.5291 12.3834 93.9021 12.7668 93.9021 13.7252V26.722C93.9021 27.1438 94.2006 27.4505 94.611 27.4505H97.7822C98.1925 27.4505 98.491 27.1438 98.491 26.722ZM113.713 25.1503V25.6104C113.713 26.5689 113.228 27.6807 110.989 27.6807C109.721 27.6807 108.863 27.1823 108.49 26.1088C107.781 26.8756 106.512 27.6807 104.833 27.6807C102.073 27.6807 100.804 25.9938 100.804 22.8884V9.77653C100.804 9.3548 101.103 9.0481 101.513 9.0481H104.684C105.095 9.0481 105.393 9.3548 105.393 9.77653V22.7733C105.393 23.7318 105.803 24.1152 106.587 24.1152C107.072 24.1152 107.743 23.9618 108.303 23.6551V9.77653C108.303 9.3548 108.601 9.0481 109.012 9.0481H112.183C112.593 9.0481 112.892 9.3548 112.892 9.77653V23.9235C112.892 24.8053 113.153 25.1503 113.713 25.1503ZM127.405 26.7223V13.6104C127.405 10.505 126.136 8.81812 123.413 8.81812C121.696 8.81812 120.503 9.62323 119.794 10.3517C119.533 9.46987 118.749 9.04815 117.854 9.04815H116.026C115.615 9.04815 115.317 9.35486 115.317 9.77658V26.7223C115.317 27.144 115.615 27.4507 116.026 27.4507H119.197C119.607 27.4507 119.906 27.144 119.906 26.7223V12.8437C120.503 12.537 121.174 12.3836 121.659 12.3836C122.443 12.3836 122.816 12.767 122.816 13.7255V26.7223C122.816 27.144 123.114 27.4507 123.525 27.4507H126.696C127.106 27.4507 127.405 27.144 127.405 26.7223ZM137.067 12.1919H135.165V23.0417C135.165 23.9235 135.388 24.3069 136.06 24.3069C136.348 24.3069 136.526 24.2506 136.806 24.162C136.853 24.1473 136.902 24.1316 136.955 24.1152C137.008 24.0972 137.056 24.0793 137.102 24.0623C137.251 24.0068 137.372 23.9619 137.515 23.9619C137.813 23.9619 138 24.1152 138 24.5753V25.342C138 26.1472 137.776 26.5689 137.366 26.8373C136.358 27.489 135.426 27.719 134.008 27.719C131.77 27.719 130.576 26.5305 130.576 24.1535V12.1919H129.307C128.897 12.1919 128.598 11.8852 128.598 11.4635V9.77655C128.598 9.35482 128.897 9.04811 129.307 9.04811H130.576V5.32926C130.576 4.90754 130.874 4.60083 131.285 4.60083H134.456C134.866 4.60083 135.165 4.90754 135.165 5.32926V9.04811H137.067C137.478 9.04811 137.776 9.35482 137.776 9.77655V11.4635C137.776 11.8852 137.478 12.1919 137.067 12.1919Z" fill="#3C3C3C"></path></svg>